#!OML:ASF F:\VICON\USERDATA\Patient Classification 1\PLAYGROUND\JustinFriday\JustinFriday.ASF
:FULLY-SPECIFIED
:DEGREES
2462
root 13.0179 17.8788 -12.947 175.243 -72.4357 -171.575
lowerback 11.9842 3.50721 -0.556724
upperback 2.04806 4.57785 2.0627
thorax -4.77149 2.23333 1.74058
lowerneck -2.83327 -3.91096 -8.0879
upperneck 9.83683 -6.11563 11.7611
head 3.98372 -2.88159 4.66163
rclavicle 4.24405e-014 -6.36111e-015
rhumerus -43.0893 -35.4159 -16.745
rradius 92.1389
rwrist 19.0671
rhand -58.1745 -26.1014
rfingers 7.12502
rthumb -30.4123 -53.6132
lclavicle 4.24405e-014 -6.36111e-015
lhumerus -49.0968 47.1468 17.7076
lradius 91.3775
lwrist -30.3184
lhand -46.931 -16.5549
lfingers 7.12502
lthumb -19.641 12.4729
rfemur -12.8412 -9.18457 14.5742
rtibia 30.82
rfoot -12.64 -21.8445
rtoes 0.0530996
lfemur -11.8557 13.5224 -18.2255
ltibia 29.4071
lfoot -19.8003 15.6024
ltoes 12.3009
2463
root 13.0328 17.8807 -12.9407 175.76 -71.714 -171.99
lowerback 11.941 3.6529 -0.968723
upperback 2.09512 4.70972 1.881
thorax -4.72103 2.30376 1.76342
lowerneck -2.55428 -4.80215 -7.07564
upperneck 10.3234 -7.44798 11.4298
head 4.17325 -3.52405 4.31538
rclavicle -8.3092e-014 -5.56597e-015
rhumerus -43.16 -36.0332 -16.1598
rradius 92.1158
rwrist 22.2028
rhand -51.4334 -23.2454
rfingers 7.12502
rthumb -23.9643 -51.7697
lclavicle -8.3092e-014 -5.56597e-015
lhumerus -49.5612 47.7164 17.3678
lradius 92.7265
lwrist -29.6265
lhand -45.9286 -13.8893
lfingers 7.12502
lthumb -18.677 15.234
rfemur -13.1293 -9.10897 14.5542
rtibia 30.7046
rfoot -12.294 -21.3045
rtoes -0.21815
lfemur -11.9767 13.89 -18.3189
ltibia 29.4723
lfoot -19.6831 16.0241
ltoes 11.4343
2464
root 13.0438 17.8817 -12.9145 175.834 -71.4559 -172.014
lowerback 12.0071 3.58038 -1.11024
upperback 2.14979 4.58883 1.8168
thorax -4.7007 2.24434 1.7934
lowerneck -2.33907 -5.89614 -8.07115
upperneck 10.8552 -9.08552 12.3281
head 4.54074 -4.33228 4.6584
rclavicle -2.4202e-014 1.23246e-014
rhumerus -42.8381 -36.1768 -15.9577
rradius 91.5309
rwrist 22.4769
rhand -50.6602 -19.5239
rfingers 7.12502
rthumb -23.2226 -48.1438
lclavicle -2.4202e-014 1.23246e-014
lhumerus -50.7093 47.9432 17.0208
lradius 94.0645
lwrist -28.8457
lhand -45.546 -11.6567
lfingers 7.12502
lthumb -18.3089 17.5017
rfemur -13.2845 -9.87178 14.5049
rtibia 30.598
rfoot -11.9703 -20.4834
rtoes -0.65208
lfemur -12.1295 13.5956 -18.4394
ltibia 29.5919
lfoot -19.4793 16.8012
ltoes 10.3532
2465
root 13.0541 17.8859 -12.8962 175.121 -71.1098 -171.229
lowerback 12.1186 3.4687 -0.934357
upperback 2.19073 4.45497 1.7505
thorax -4.69441 2.17314 1.64329
lowerneck -1.99667 -6.83487 -8.58673
upperneck 11.3238 -10.4913 12.7088
head 4.8227 -5.03442 4.76872
rclavicle 2.79292e-014 1.31198e-014
rhumerus -41.9751 -34.8879 -17.1508
rradius 90.896
rwrist 18.3153
rhand -58.2981 -23.8112
rfingers 7.12502
rthumb -30.5302 -51.3011
lclavicle 2.79292e-014 1.31198e-014
lhumerus -52.1612 47.6041 16.8544
lradius 95.682
lwrist -27.2693
lhand -46.2352 -9.73189
lfingers 7.12502
lthumb -18.9719 19.3629
rfemur -13.3693 -10.6178 14.7779
rtibia 30.4632
rfoot -11.7881 -19.6104
rtoes -1.1583
lfemur -12.2554 13.407 -18.206
ltibia 29.7938
lfoot -19.8476 17.1485
ltoes 10.9824
2466
root 13.0694 17.8852 -12.8808 174.435 -70.6471 -170.409
lowerback 12.3243 3.33968 -0.359853
upperback 2.16488 4.33809 1.38066
thorax -4.7579 2.10371 0.944197
lowerneck -1.50816 -7.56908 -8.04314
upperneck 11.7671 -11.6491 12.6965
head 4.97294 -5.5998 4.60281
rclavicle 2.5345e-014 0
rhumerus -41.965 -34.1957 -17.9964
rradius 90.802
rwrist 16.3181
rhand -60.7569 -26.5549
rfingers 7.12502
rthumb -32.8722 -53.582
lclavicle 2.5345e-014 0
lhumerus -51.0994 48.6658 16.7363
lradius 97.1942
lwrist -25.8918
lhand -45.9154 -7.23554
lfingers 7.12502
lthumb -18.6643 21.8891
rfemur -13.5559 -11.1973 15.1345
rtibia 30.3054
rfoot -11.7681 -18.8498
rtoes -1.33054
lfemur -12.4981 13.6413 -17.9021
ltibia 30.0471
lfoot -20.2929 17.0221
ltoes 12.4026
2467
root 13.0888 17.8839 -12.8641 173.638 -70.212 -169.494
lowerback 12.3474 3.33996 -0.57108
upperback 2.34756 4.31546 1.74211
thorax -4.62255 2.09227 1.44755
lowerneck -1.2257 -8.53621 -9.63568
upperneck 12.2389 -13.1296 13.5934
head 5.39723 -6.35206 5.02187
rclavicle -6.5102e-015 1.98785e-016
rhumerus -41.5109 -34.1287 -17.7573
rradius 90.7986
rwrist 16.4086
rhand -58.8568 -25.2404
rfingers 7.12502
rthumb -31.0628 -52.6299
lclavicle -6.5102e-015 1.98785e-016
lhumerus -51.3668 49.8417 17.2379
lradius 98.3784
lwrist -26.2131
lhand -47.4192 -4.84321
lfingers 7.12502
lthumb -20.1102 24.136
rfemur -13.7329 -11.5657 15.537
rtibia 30.1981
rfoot -12.1718 -18.2196
rtoes -0.480041
lfemur -12.7208 13.804 -17.5525
ltibia 30.2681
lfoot -20.5052 17.1672
ltoes 13.2552
2468
root 13.105 17.8851 -12.848 173 -69.9252 -168.774
lowerback 12.556 3.14158 -0.302152
upperback 2.43181 4.07523 1.65661
thorax -4.6154 1.96585 1.23972
lowerneck -0.689819 -9.26083 -6.12646
upperneck 11.5314 -13.7689 10.5261
head 4.71864 -6.68196 3.51275
rclavicle 3.25261e-014 -7.35503e-015
rhumerus -41.4053 -34.4362 -17.7371
rradius 90.8277
rwrist 17.6274
rhand -55.5963 -21.5669
rfingers 7.12502
rthumb -27.9504 -49.5063
lclavicle 3.25261e-014 -7.35503e-015
lhumerus -51.6794 50.3688 17.369
lradius 99.6104
lwrist -25.7132
lhand -48.1588 -2.81122
lfingers 7.12502
lthumb -20.821 26.0916
rfemur -13.8616 -11.9901 15.8003
rtibia 30.1776
rfoot -12.7676 -17.4281
rtoes 0.871441
lfemur -12.8777 13.7245 -17.3022
ltibia 30.4271
lfoot -20.7231 17.5018
ltoes 13.8426
2469
root 13.1209 17.8852 -12.838 173.769 -69.8492 -169.494
lowerback 12.4933 3.21692 -0.878825
upperback 2.57144 4.09312 1.65088
thorax -4.47509 1.97988 1.56086
lowerneck 0.265472 -10.3853 -4.57613
upperneck 10.5688 -15.0973 9.25159
head 4.17468 -7.37406 2.8865
rclavicle -1.2424e-016 -1.35174e-014
rhumerus -41.9374 -35.1209 -16.5257
rradius 90.7956
rwrist 18.5833
rhand -51.9601 -15.4854
rfingers 7.12502
rthumb -24.4693 -43.9424
lclavicle -1.2424e-016 -1.35174e-014
lhumerus -50.9626 50.6389 19.0876
lradius 100.859
lwrist -25.2294
lhand -49.3285 -3.75219
lfingers 7.12502
lthumb -21.9444 25.0232
rfemur -14.0508 -12.6841 15.4844
rtibia 30.2089
rfoot -13.281 -16.6174
rtoes 2.01291
lfemur -13.0915 13.8105 -17.636
ltibia 30.5284
lfoot -20.6286 17.6777
ltoes 13.5078
2470
root 13.1471 17.8868 -12.8363 174.536 -69.6665 -170.19
lowerback 12.5141 3.32206 -1.37392
upperback 2.65675 4.15626 1.47916
thorax -4.42161 2.0146 1.64977
lowerneck 1.16532 -11.4241 -4.92461
upperneck 10.1717 -16.6214 10.2188
head 4.12839 -8.14418 3.18438
rclavicle -1.86982e-014 1.2921e-014
rhumerus -42.637 -35.7052 -15.5698
rradius 90.6544
rwrist 19.1394
rhand -49.2298 -12.5114
rfingers 7.12502
rthumb -21.8497 -41.2978
lclavicle -1.86982e-014 1.2921e-014
lhumerus -49.8525 50.8413 20.7225
lradius 102.039
lwrist -25.1738
lhand -50.3007 -7.31915
lfingers 7.12502
lthumb -22.8777 21.3438
rfemur -14.3031 -13.0234 15.2921
rtibia 30.2628
rfoot -13.7225 -16.3213
rtoes 2.58403
lfemur -13.3385 14.0755 -17.893
ltibia 30.6011
lfoot -20.3776 17.7474
ltoes 12.8928
2471
root 13.1768 17.893 -12.842 173.981 -69.1557 -169.443
lowerback 12.4796 3.41335 -1.48549
upperback 2.76023 4.25812 1.51464
thorax -4.30938 2.0626 1.73751
lowerneck 2.18418 -12.2632 -6.8576
upperneck 10.0841 -18.1241 12.6024
head 4.4447 -8.9181 4.10818
rclavicle 3.6814e-015 1.24551e-015
rhumerus -42.92 -36.0091 -15.06
rradius 90.4739
rwrist 19.4315
rhand -48.2036 -14.3446
rfingers 7.12502
rthumb -20.864 -43.2427
lclavicle 3.6814e-015 1.24551e-015
lhumerus -49.1961 50.9622 22.0341
lradius 103.052
lwrist -26.0381
lhand -51.4605 -9.20546
lfingers 7.12502
lthumb -23.9902 19.3155
rfemur -14.623 -12.9804 15.7975
rtibia 30.3643
rfoot -13.8137 -16.5872
rtoes 0.866941
lfemur -13.5764 14.6364 -17.4938
ltibia 30.6522
lfoot -20.1112 17.8106
ltoes 12.2263
2472
root 13.197 17.8995 -12.8273 173.177 -69.0538 -168.298
lowerback 12.2572 3.19474 -1.14959
upperback 2.91056 4.00783 1.5752
thorax -4.00008 1.93099 1.67007
lowerneck 2.11114 -12.7679 -8.94159
upperneck 10.9413 -19.2327 14.3956
head 5.2082 -9.45106 4.79694
rclavicle 1.00821e-014 -2.12451e-014
rhumerus -43.0015 -36.995 -14.2913
rradius 90.4044
rwrist 21.5749
rhand -43.3488 -13.8931
rfingers 7.12502
rthumb -16.1942 -43.2367
lclavicle 1.00821e-014 -2.12451e-014
lhumerus -48.6905 50.9039 23.4262
lradius 104.218
lwrist -26.2901
lhand -52.8249 -9.71493
lfingers 7.12502
lthumb -25.298 18.6275
rfemur -14.9925 -13.6067 16.324
rtibia 30.4651
rfoot -13.8825 -16.6552
rtoes -0.540891
lfemur -14.0315 14.6655 -17.1768
ltibia 30.7321
lfoot -19.6916 18.302
ltoes 10.7385
2473
root 13.2173 17.8995 -12.8077 173.193 -69.2283 -168.216
lowerback 12.2253 2.85944 -1.14906
upperback 3.1435 3.5484 1.53105
thorax -3.71707 1.6963 1.70489
lowerneck 2.51261 -13.191 -10.7475
upperneck 11.1788 -20.1796 16.0721
head 5.69202 -9.93818 5.47377
rclavicle 5.01931e-015 -1.18774e-014
rhumerus -42.4128 -37.4134 -14.6497
rradius 90.393
rwrist 21.2566
rhand -44.4568 -17.6994
rfingers 7.12502
rthumb -17.2609 -46.9529
lclavicle 5.01931e-015 -1.18774e-014
lhumerus -47.9899 50.753 24.9494
lradius 105.377
lwrist -26.347
lhand -53.7167 -10.2335
lfingers 7.12502
lthumb -26.1521 17.9853
rfemur -15.1328 -14.4539 16.284
rtibia 30.5419
rfoot -14.2984 -16.4604
rtoes 0.0312084
lfemur -14.358 14.8031 -17.3069
ltibia 30.839
lfoot -19.16 18.4809
ltoes 9.23891
2474
root 13.2391 17.8969 -12.7889 173.393 -69.3618 -168.479
lowerback 12.437 2.63099 -1.26312
upperback 3.3484 3.21243 1.46018
thorax -3.60684 1.52302 1.74435
lowerneck 3.16114 -13.7538 -11.6508
upperneck 11.0363 -21.171 17.008
head 5.88425 -10.4613 5.81638
rclavicle 8.84592e-015 -5.46658e-015
rhumerus -41.7314 -37.1044 -15.4809
rradius 90.0955
rwrist 17.4392
rhand -49.3703 -21.2787
rfingers 7.12502
rthumb -21.9846 -50.0493
lclavicle 8.84592e-015 -5.46658e-015
lhumerus -46.7959 50.6172 26.9895
lradius 106.305
lwrist -26.7482
lhand -54.2383 -10.9458
lfingers 7.12502
lthumb -26.6514 17.1981
rfemur -15.1244 -15.2024 16.0821
rtibia 30.6193
rfoot -15.0035 -16.4053
rtoes 1.52029
lfemur -14.5333 15.5356 -17.482
ltibia 30.9065
lfoot -18.6359 17.9443
ltoes 8.06185
